<?xml version="1.0" encoding="utf-8"?>
<!-- Generator: Adobe Illustrator 15.0.0, SVG Export Plug-In . SVG Version: 6.00 Build 0)  -->
<!DOCTYPE svg PUBLIC "-//W3C//DTD SVG 1.1//EN" "http://www.w3.org/Graphics/SVG/1.1/DTD/svg11.dtd">
<svg version="1.1" id="Layer_1" xmlns="http://www.w3.org/2000/svg" xmlns:xlink="http://www.w3.org/1999/xlink" x="0px" y="0px"
	 width="100px" height="24px" viewBox="0 0 100 24" enable-background="new 0 0 100 24" xml:space="preserve">
<g>
	
		<linearGradient id="SVGID_1_" gradientUnits="userSpaceOnUse" x1="-252.5776" y1="402.8291" x2="-252.3828" y2="402.7617" gradientTransform="matrix(105.7332 0 0 -63.4399 26706.9805 25563.9375)">
		<stop  offset="0" style="stop-color:#2298BD"/>
		<stop  offset="1" style="stop-color:#0ED7B5"/>
	</linearGradient>
	<path fill="url(#SVGID_1_)" d="M11.691,4.543c-2.683,0-4.359,1.367-5.03,4.1c1.006-1.367,2.18-1.879,3.521-1.537
		c0.766,0.195,1.313,0.76,1.917,1.387c0.986,1.02,2.129,2.2,4.622,2.2c2.683,0,4.359-1.367,5.03-4.1
		c-1.006,1.367-2.18,1.879-3.521,1.537c-0.765-0.194-1.312-0.76-1.917-1.387C15.326,5.724,14.185,4.543,11.691,4.543z M6.661,10.692
		c-2.683,0-4.359,1.366-5.03,4.1c1.006-1.366,2.18-1.879,3.521-1.537c0.765,0.194,1.313,0.76,1.918,1.387
		c0.986,1.02,2.128,2.2,4.621,2.2c2.682,0,4.359-1.366,5.03-4.1c-1.006,1.367-2.179,1.879-3.521,1.537
		c-0.765-0.194-1.313-0.761-1.918-1.387C10.296,11.873,9.154,10.692,6.661,10.692z"/>
	<path fill="#2D3748" d="M31.809,9.725h-1.756v3.461c0,0.924,0.595,0.909,1.756,0.852v1.398c-2.35,0.288-3.285-0.375-3.285-2.25
		V9.725h-1.302v-1.5h1.302V6.288l1.529-0.462v2.399h1.756V9.725z M38.501,8.225h1.529v7.211h-1.529v-1.038
		c-0.538,0.765-1.373,1.226-2.478,1.226c-1.925,0-3.526-1.657-3.526-3.793c0-2.149,1.601-3.793,3.526-3.793
		c1.104,0,1.939,0.461,2.478,1.211V8.225z M36.265,14.139c1.274,0,2.237-0.966,2.237-2.308s-0.962-2.308-2.237-2.308
		c-1.275,0-2.237,0.966-2.237,2.308S34.99,14.139,36.265,14.139z M42.579,7.143c-0.538,0-0.977-0.461-0.977-0.995
		c0-0.548,0.439-0.996,0.977-0.996c0.539,0,0.978,0.447,0.978,0.996C43.557,6.682,43.118,7.143,42.579,7.143z M41.815,15.437V8.225
		h1.529v7.211H41.815z M45.113,15.437V4.907h1.529v10.529H45.113z M56.568,8.225h1.613l-2.223,7.211h-1.502l-1.471-4.86l-1.487,4.86
		h-1.5l-2.223-7.211h1.614l1.375,4.977l1.486-4.977h1.459l1.471,4.977L56.568,8.225z M60.08,7.143c-0.539,0-0.977-0.461-0.977-0.995
		c0-0.548,0.438-0.996,0.977-0.996c0.537,0,0.975,0.447,0.975,0.996C61.055,6.682,60.617,7.143,60.08,7.143z M59.314,15.437V8.225
		h1.527v7.211H59.314z M66.336,8.038c1.586,0,2.719,1.096,2.719,2.972v4.427h-1.527v-4.27c0-1.096-0.625-1.673-1.586-1.673
		c-1.006,0-1.799,0.606-1.799,2.077v3.865h-1.529V8.225h1.529v0.923C64.609,8.398,65.375,8.038,66.336,8.038z M76.305,5.34h1.531
		v10.097h-1.531v-1.038c-0.539,0.765-1.373,1.226-2.479,1.226c-1.924,0-3.525-1.657-3.525-3.793c0-2.149,1.602-3.793,3.525-3.793
		c1.105,0,1.939,0.461,2.479,1.211V5.34z M74.068,14.139c1.273,0,2.236-0.966,2.236-2.308s-0.963-2.308-2.236-2.308
		s-2.238,0.966-2.238,2.308S72.795,14.139,74.068,14.139z M82.959,15.624c-2.137,0-3.738-1.657-3.738-3.793
		c0-2.149,1.602-3.793,3.738-3.793c1.387,0,2.592,0.736,3.158,1.861l-1.316,0.779c-0.313-0.679-1.006-1.111-1.855-1.111
		c-1.246,0-2.195,0.965-2.195,2.264c0,1.298,0.949,2.265,2.195,2.265c0.85,0,1.543-0.447,1.883-1.11l1.316,0.765
		C85.551,14.89,84.346,15.624,82.959,15.624z M88.664,10.216c0,1.313,3.811,0.519,3.811,3.188c0,1.442-1.232,2.221-2.762,2.221
		c-1.416,0-2.436-0.648-2.889-1.688l1.318-0.778c0.225,0.649,0.793,1.039,1.57,1.039c0.68,0,1.203-0.23,1.203-0.809
		c0-1.283-3.809-0.563-3.809-3.144c0-1.356,1.146-2.208,2.59-2.208c1.162,0,2.127,0.548,2.621,1.5l-1.289,0.736
		c-0.254-0.563-0.75-0.822-1.332-0.822C89.146,9.451,88.664,9.696,88.664,10.216z M95.193,10.216c0,1.313,3.807,0.519,3.807,3.188
		c0,1.442-1.23,2.221-2.76,2.221c-1.418,0-2.436-0.648-2.889-1.688l1.316-0.778c0.227,0.649,0.793,1.039,1.572,1.039
		c0.68,0,1.203-0.23,1.203-0.809c0-1.283-3.809-0.563-3.809-3.144c0-1.356,1.148-2.208,2.592-2.208c1.16,0,2.123,0.548,2.619,1.5
		l-1.289,0.736c-0.254-0.563-0.752-0.822-1.33-0.822C95.672,9.451,95.193,9.696,95.193,10.216z"/>
</g>
</svg>
